<svg width="50" height="50" viewBox="0 0 50 50" fill="none" xmlns="http://www.w3.org/2000/svg">
<g clip-path="url(#clip0_871_5536)">
<path d="M50 25C50 38.8125 38.8125 50 25 50C11.1875 50 0 38.8125 0 25C0 11.1875 11.1875 0 25 0C38.8125 0 50 11.1875 50 25Z" fill="url(#paint0_linear_871_5536)"/>
<path d="M20.4154 36.459C19.6029 36.459 19.7487 36.1465 19.457 35.3757L17.082 27.5423L31.832 18.334L33.5612 18.7923L32.1237 22.709L20.4154 36.459Z" fill="#C8DAEA"/>
<path d="M20.418 36.4583C21.043 36.4583 21.3138 36.1667 21.668 35.8333C22.2096 35.3125 29.168 28.5417 29.168 28.5417L24.8971 27.5L20.9388 30L20.418 36.25V36.4583Z" fill="#A9C9DD"/>
<path d="M20.8337 30.0836L30.917 37.5211C32.0629 38.1461 32.8962 37.8336 33.1879 36.4586L37.292 17.1253C37.7087 15.4378 36.6462 14.6878 35.542 15.1878L11.4587 24.4794C9.81286 25.1461 9.83369 26.0628 11.167 26.4586L17.3545 28.3961L31.667 19.3753C32.3337 18.9586 32.9587 19.1878 32.4587 19.6461L20.8337 30.0836Z" fill="url(#paint1_linear_871_5536)"/>
</g>
<defs>
<linearGradient id="paint0_linear_871_5536" x1="32.3271" y1="7.90208" x2="19.8271" y2="37.0683" gradientUnits="userSpaceOnUse">
<stop stop-color="#37AEE2"/>
<stop offset="1" stop-color="#1E96C8"/>
</linearGradient>
<linearGradient id="paint1_linear_871_5536" x1="26.8735" y1="25.7825" x2="32.0818" y2="34.1159" gradientUnits="userSpaceOnUse">
<stop stop-color="#EFF7FC"/>
<stop offset="1" stop-color="white"/>
</linearGradient>
<clipPath id="clip0_871_5536">
<rect width="50" height="50" fill="white"/>
</clipPath>
</defs>
</svg>
