<svg width="125" height="120" fill="none" xmlns="http://www.w3.org/2000/svg"><rect width="120" height="120" rx="60" fill="#F1F8FA"/><g clip-path="url(#clip0_1669_1387)" fill="#000"><path d="M690.827 423.147h-24.073c-3.86-54.86-9.735-115.38-17.36-127.26-11.016-17.198-36.698-27.12-66.448-38.61-7.391-2.859-15.031-5.802-22.588-8.932-17.974-7.526-28.746-12.432-34.86-15.375l-.188-19.13c4.995-6.183 11.714-17.427 15.584-36.042a26.25 26.25 0 002.703-1.703c9.797-6.958 16.136-20.749 16.599-29.838.167-2.589 1.292-25.027-10.01-36.146 1.515-13.224 2.218-23.078 1.572-29.88-3.317-34.322-36.39-69.833-86.016-69.833-49.593 0-82.688 35.505-86.03 69.85-.651 6.869.052 16.707 1.568 29.874-11.36 11.156-10.183 33.579-10.021 36.093.599 9.386 7.026 23.167 16.776 30a28.733 28.733 0 002.531 1.573c3.854 18.62 10.578 29.875 15.588 36.058l-.193 19.12c-6.135 2.947-16.896 7.849-34.822 15.349-35.787 14.807-64.058 26.5-77.574 47.557-.666 1.037-1.547 2.412-2.172 6.745-46.702.625-131.849 11.672-135.546 12.156-8.183 1.073-13.943 8.558-12.881 16.74.985 7.526 7.401 13 14.787 13 .651 0 1.297-.036 1.958-.125.881-.119 86.027-11.161 131.183-11.901.667 17.943 2.526 45.094 6.49 86.579H237.78c-6.662-25.625-29.918-44.636-57.599-44.636-32.839 0-59.568 26.724-59.568 59.568 0 32.844 26.724 59.568 59.568 59.568 27.677 0 50.937-19.011 57.599-44.636h62.584c3.255 31.636 7.51 69.984 13.015 116.448H135.046c-8.245 0-14.932 6.693-14.932 14.932 0 8.245 6.693 14.932 14.932 14.932h75.511c-.006.156-.052.312-.052.479 0 18.979-15.443 34.421-34.422 34.421h-44.802c-18.99 0-34.427-15.442-34.427-34.421v-179.68c0-5.885.448-12.312 1.349-19.631l3.099-19.302c1.312-8.146-4.224-15.807-12.37-17.115-8.151-1.349-15.807 4.224-17.115 12.37l-1.135 7.078-5.02.005c-14.449 0-26.204-11.75-26.204-26.208 0-14.448 11.75-26.203 26.203-26.203h39.954c6.197 0 11.75-3.828 13.953-9.625 22.563-59.369 55.568-106.526 73.292-131.854 2.396-3.427 4.489-6.401 6.182-8.907 26.656-17.432 75.412-27.797 131.317-27.797 8.245 0 14.932-6.693 14.932-14.932 0-8.245-6.692-14.932-14.932-14.932-64.338 0-119.265 12.651-150.68 34.713a14.982 14.982 0 00-3.89 4c-1.813 2.756-4.339 6.36-7.401 10.74-16.271 23.251-49.219 70.339-72.959 128.735H65.664c-30.922 0-56.068 25.145-56.068 56.068 0 30.922 25.145 56.073 56.068 56.073h1.468a156.151 156.151 0 00-.15 6.719v179.68c0 35.453 28.844 64.287 64.297 64.287h44.802c35.454 0 64.287-28.839 64.287-64.287 0-.167-.047-.323-.052-.479h76.636c3.776 31.25 8.063 65.749 12.927 103.973.974 7.552 7.401 13.052 14.807 13.052.635 0 1.271-.036 1.911-.12 8.183-1.047 13.964-8.526 12.927-16.702-17.197-135.027-42.718-355.72-39.588-385.174 9.511-12.385 34.23-22.604 62.694-34.374 35.494-14.86 44.948-20.375 45.896-20.959a14.913 14.913 0 007.218-12.625l.349-34.177c.047-4.688-1.682-8.771-5.39-11.636-.089-.088-9.104-8.458-12.224-32.822a14.904 14.904 0 00-6.636-10.605 14.991 14.991 0 00-7.703-2.427c-1.359-1.755-2.87-4.786-3.068-6.385-.218-3.235.219-7.865.912-10.948a14.845 14.845 0 005.568-3.24 14.901 14.901 0 004.687-12.88c-1.036-8.099-3.458-27.057-2.792-34.093 2.068-21.052 23.683-42.839 56.312-42.839 32.646 0 54.255 21.781 56.276 42.812.667 6.953-1.671 25.317-2.791 34.136a14.952 14.952 0 0010.244 16.109c.693 3.094 1.125 7.75.912 11.068-.203 1.584-1.693 4.531-3.031 6.266a14.975 14.975 0 00-7.714 2.416 15.001 15.001 0 00-6.646 10.594c-3.099 24-11.859 32.495-11.812 32.5a14.93 14.93 0 00-5.792 11.964l.338 34.177a14.953 14.953 0 007.203 12.636c.964.573 10.402 6.093 45.959 20.989 7.849 3.24 15.703 6.281 23.303 9.214 21.385 8.26 45.578 17.604 51.802 26.469 4.198 10.349 9.714 66.355 13.74 125.531-.02.322-.098.619-.098.942 0 1.12.151 2.203.38 3.255.635 9.558 1.234 19.162 1.776 28.651l-122.11 129.844c-.776.823-1.411 1.719-1.968 2.651h-73.522V453h87.75c8.244 0 14.932-6.693 14.932-14.932 0-8.245-6.693-14.932-14.932-14.932H427.275c-8.245 0-14.932 6.693-14.932 14.932v179.347c0 8.245 6.693 14.932 14.932 14.932h170.187l.005 64.978c0 8.245 6.692 14.933 14.932 14.933 8.245 0 14.932-6.693 14.932-14.933v-64.969h63.505c8.245 0 14.932-6.692 14.932-14.932V438.078c0-8.245-6.682-14.932-14.932-14.932l-.009.001zm-510.64 40.552c-16.375 0-29.703-13.323-29.703-29.703s13.323-29.703 29.703-29.703 29.703 13.323 29.703 29.703-13.328 29.703-29.703 29.703zm495.72 138.8H556.194l109.76-116.719a14.926 14.926 0 004.031-11.052c-.375-6.745-.792-14.057-1.261-21.703h7.183v149.474zM86.383 64.344h-1.886c-.303-4.299-.763-9.041-1.36-9.972-.864-1.348-2.876-2.126-5.208-3.026-.579-.224-1.178-.454-1.77-.7a60.102 60.102 0 01-2.732-1.205l-.014-1.499c.391-.484.918-1.365 1.221-2.824.072-.04.143-.084.212-.134.767-.545 1.264-1.626 1.3-2.338.014-.203.102-1.96-.784-2.832.119-1.036.174-1.809.123-2.342-.26-2.69-2.851-5.472-6.74-5.472-3.886 0-6.48 2.782-6.742 5.474-.05.538.004 1.309.123 2.34-.89.875-.798 2.632-.785 2.829.047.736.55 1.815 1.315 2.35.064.046.13.087.198.124.302 1.46.829 2.341 1.221 2.826l-.015 1.498c-.48.231-1.324.615-2.729 1.203-2.804 1.16-5.02 2.076-6.078 3.727-.053.08-.122.188-.17.528-3.66.05-10.333.915-10.622.953a1.17 1.17 0 10.303 2.32c.069-.009 6.74-.874 10.28-.932.052 1.406.197 3.533.508 6.784h-4.67a4.673 4.673 0 00-4.514-3.498 4.674 4.674 0 00-4.668 4.669 4.673 4.673 0 004.667 4.667 4.673 4.673 0 004.514-3.497h4.904c.256 2.479.589 5.484 1.02 9.125H42.831a1.17 1.17 0 000 2.34h5.917c0 .012-.004.025-.004.038a2.7 2.7 0 01-2.698 2.697h-3.51a2.7 2.7 0 01-2.698-2.697v-14.08c0-.462.035-.965.105-1.539l.243-1.513a1.17 1.17 0 10-2.31-.371l-.09.554h-.393a2.056 2.056 0 01-2.053-2.053c0-1.132.92-2.053 2.053-2.053h3.131c.486 0 .921-.3 1.094-.755 1.768-4.652 4.354-8.347 5.743-10.332.188-.269.352-.502.485-.698 2.088-1.366 5.909-2.178 10.29-2.178a1.17 1.17 0 000-2.34c-5.042 0-9.346.99-11.808 2.72a1.18 1.18 0 00-.305.313c-.142.216-.34.498-.58.842-1.275 1.822-3.856 5.512-5.717 10.088h-2.332A4.398 4.398 0 0033 58.866a4.398 4.398 0 004.394 4.394h.115c-.008.18-.012.355-.012.527v14.08a5.044 5.044 0 005.038 5.038h3.511a5.043 5.043 0 005.038-5.038c0-.013-.004-.025-.004-.037h6.005c.296 2.448.632 5.152 1.013 8.147a1.172 1.172 0 002.323-.295C59.074 75.1 57.074 57.807 57.32 55.498c.745-.97 2.682-1.77 4.913-2.693 2.781-1.165 3.522-1.597 3.597-1.643.347-.209.561-.584.565-.989l.027-2.678c.004-.367-.131-.687-.422-.912-.007-.007-.713-.663-.958-2.572a1.168 1.168 0 00-1.123-1.021c-.107-.138-.225-.375-.24-.5a3.433 3.433 0 01.07-.858 1.167 1.167 0 00.804-1.263c-.081-.635-.27-2.12-.219-2.672.163-1.65 1.856-3.357 4.413-3.357 2.558 0 4.252 1.707 4.41 3.355.052.544-.13 1.984-.219 2.675a1.172 1.172 0 00.803 1.262c.055.242.088.607.072.867-.016.124-.133.355-.238.491a1.173 1.173 0 00-1.125 1.02c-.243 1.88-.93 2.546-.926 2.547a1.17 1.17 0 00-.454.937l.027 2.678c.004.406.217.78.564.99.076.045.815.478 3.602 1.645.615.254 1.23.492 1.826.722 1.676.648 3.572 1.38 4.06 2.074.328.811.76 5.2 1.076 9.837-.002.026-.008.049-.008.074 0 .088.012.173.03.255.05.75.097 1.502.14 2.245l-9.57 10.175a1.27 1.27 0 00-.154.208h-5.761V66.683h6.876a1.17 1.17 0 000-2.34h-8.046a1.17 1.17 0 00-1.17 1.17v14.054c0 .647.524 1.17 1.17 1.17h13.336v5.093a1.17 1.17 0 002.34 0v-5.092h4.977a1.17 1.17 0 001.17-1.17V65.514a1.17 1.17 0 00-1.17-1.17zm-40.015 3.178a2.33 2.33 0 01-2.328-2.328 2.33 2.33 0 012.328-2.327 2.33 2.33 0 012.328 2.327 2.33 2.33 0 01-2.328 2.328zm38.846 10.877h-9.381l8.601-9.147a1.17 1.17 0 00.316-.866c-.03-.528-.062-1.101-.099-1.7h.563v11.713z"/><path d="M69.242 60.551v-5.25a1.17 1.17 0 00-2.34 0v5.25a1.17 1.17 0 002.34 0z"/></g><rect x="85" width="40" height="40" rx="20" fill="#000"/><path d="M104.561 20.41V19.2c.499 0 .939-.066 1.32-.198.381-.147.704-.337.968-.572.264-.25.462-.535.594-.858.147-.323.22-.667.22-1.034 0-.484-.088-.91-.264-1.276a1.926 1.926 0 00-.792-.88c-.337-.205-.763-.308-1.276-.308-.719 0-1.327.227-1.826.682-.499.44-.748.997-.748 1.672h-1.782c0-.807.183-1.51.55-2.112a3.961 3.961 0 011.54-1.408c.66-.352 1.408-.528 2.244-.528.88 0 1.635.19 2.266.572.645.381 1.137.88 1.474 1.496.352.616.528 1.29.528 2.024 0 .719-.213 1.379-.638 1.98-.425.601-1.012 1.078-1.76 1.43-.748.352-1.621.528-2.618.528zm.66 7.81c-.748 0-1.423-.11-2.024-.33a4.693 4.693 0 01-1.54-.902 4.294 4.294 0 01-.99-1.364 4.118 4.118 0 01-.352-1.694h1.892c0 .484.125.917.374 1.298.264.381.623.682 1.078.902.455.22.975.33 1.562.33.587 0 1.093-.11 1.518-.33.44-.235.777-.557 1.012-.968.235-.41.352-.895.352-1.452 0-.47-.095-.88-.286-1.232a2.355 2.355 0 00-.748-.902 3.214 3.214 0 00-1.122-.55 5.195 5.195 0 00-1.386-.176v-1.21a8.6 8.6 0 012.09.242c.66.161 1.239.418 1.738.77a3.43 3.43 0 011.188 1.32c.293.543.44 1.195.44 1.958 0 .865-.213 1.62-.638 2.266a4.097 4.097 0 01-1.694 1.496c-.719.352-1.54.528-2.464.528z" fill="#fff"/><defs><clipPath id="clip0_1669_1387"><path fill="#fff" transform="translate(10 10)" d="M0 0h100v100H0z"/></clipPath></defs></svg>