<svg width="126" height="120" fill="none" xmlns="http://www.w3.org/2000/svg"><rect x=".5" width="120" height="120" rx="60" fill="#F1F8FA"/><path d="M57.024 43.662l-9.303-10.738c-1.073-1.238-3.039-1.232-4.285.017l-7.65 7.663c-2.277 2.28-2.929 5.665-1.612 8.379a80.317 80.317 0 0037.293 37.343c2.711 1.317 6.094.665 8.37-1.614l7.723-7.736c1.251-1.25 1.254-3.228.005-4.3l-10.78-9.254c-1.127-.968-2.879-.841-4.01.292l-3.75 3.756a1.27 1.27 0 01-1.52.242 40.03 40.03 0 01-14.74-14.758 1.274 1.274 0 01.241-1.524l3.74-3.742c1.133-1.139 1.257-2.899.278-4.029v.003z" stroke="#020202" stroke-width="2.067" stroke-linecap="round" stroke-linejoin="round"/><rect x="85.5" width="40" height="40" rx="20" fill="#000"/><path d="M99.677 28l7.282-7.766a8.76 8.76 0 00.858-1.078c.25-.367.433-.733.55-1.1.132-.381.198-.777.198-1.188 0-.337-.066-.667-.198-.99a2.667 2.667 0 00-.594-.88 2.8 2.8 0 00-.924-.638 3.081 3.081 0 00-1.254-.242c-.66 0-1.232.154-1.716.462-.469.293-.828.726-1.078 1.298-.249.557-.374 1.225-.374 2.002h-1.87c0-1.1.198-2.06.594-2.882.396-.836.968-1.481 1.716-1.936.763-.47 1.672-.704 2.728-.704.851 0 1.584.147 2.2.44.616.279 1.122.645 1.518 1.1.396.44.69.917.88 1.43.191.513.286 1.005.286 1.474 0 .792-.19 1.577-.572 2.354a8.021 8.021 0 01-1.474 2.09l-4.906 4.994h7.018V28H99.677z" fill="#fff"/></svg>