<svg width="125" height="120" fill="none" xmlns="http://www.w3.org/2000/svg"><rect width="120" height="120" rx="60" fill="#F1F8FA"/><g clip-path="url(#clip0_1669_2197)" fill="#1A1A1A"><path fill-rule="evenodd" clip-rule="evenodd" d="M35.068 40.568h50.864c1.347 0 2.628.534 3.579 1.49A5.055 5.055 0 0191 45.636v30.027a5.035 5.035 0 01-1.49 3.58 5.056 5.056 0 01-3.578 1.489H35.068a5.035 5.035 0 01-3.579-1.49A5.056 5.056 0 0130 75.658V45.631c0-1.342.534-2.623 1.49-3.578a5.056 5.056 0 013.578-1.49v.005zm50.869 2.816H35.068c-.6 0-1.164.24-1.586.661-.422.422-.66.991-.66 1.586v30.027c0 .6.238 1.165.66 1.586.422.422.991.661 1.586.661h50.864c.6 0 1.164-.239 1.586-.66.422-.422.66-.992.66-1.587V45.631c0-.6-.238-1.164-.66-1.586a2.244 2.244 0 00-1.586-.66h.005z"/><path d="M92 50.56V55H31v-5h61v.56zM40.507 62.523a5.644 5.644 0 012.105.407 7.082 7.082 0 00-.661.58 6.555 6.555 0 00-1.927 4.646c0 1.748.691 3.41 1.927 4.646.208.208.427.401.66.58l-.157.06a5.644 5.644 0 01-5.927-1.301 5.613 5.613 0 01-1.647-3.98c0-1.556.63-2.964 1.647-3.98a5.612 5.612 0 013.98-1.648v-.01z"/><path d="M42.617 64.17a5.613 5.613 0 013.98-1.647c1.556 0 2.964.63 3.98 1.647a5.612 5.612 0 011.647 3.98c0 1.556-.63 2.964-1.647 3.98a5.612 5.612 0 01-3.98 1.648 5.613 5.613 0 01-3.98-1.647 5.613 5.613 0 01-1.647-3.98c0-1.556.63-2.964 1.647-3.98z"/><path fill-rule="evenodd" clip-rule="evenodd" d="M57.394 66.747h6.014c.732 0 1.326.63 1.326 1.409 0 .777-.594 1.408-1.326 1.408h-6.014c-.732 0-1.327-.63-1.327-1.408 0-.778.595-1.409 1.327-1.409zm10.472 0h6.013c.732 0 1.327.63 1.327 1.409 0 .777-.595 1.408-1.327 1.408h-6.013c-.732 0-1.327-.63-1.327-1.408 0-.778.595-1.409 1.327-1.409zm10.472 0h6.013c.732 0 1.327.63 1.327 1.409 0 .777-.595 1.408-1.327 1.408h-6.013c-.732 0-1.327-.63-1.327-1.408 0-.778.595-1.409 1.327-1.409z"/></g><rect x="85" width="40" height="40" rx="20" fill="#000"/><path d="M110.319 22.94c0 .88-.139 1.65-.418 2.31a4.493 4.493 0 01-1.166 1.65c-.499.44-1.071.77-1.716.99-.645.22-1.342.33-2.09.33-.939 0-1.76-.147-2.464-.44a5.782 5.782 0 01-1.782-1.166 8.2 8.2 0 01-1.232-1.628l1.584-1.078c.235.44.543.858.924 1.254.396.381.851.697 1.364.946a3.82 3.82 0 001.606.352c.733 0 1.357-.147 1.87-.44a2.867 2.867 0 001.166-1.232c.279-.528.418-1.144.418-1.848 0-.704-.154-1.32-.462-1.848a3.109 3.109 0 00-1.232-1.232c-.513-.293-1.1-.44-1.76-.44-.484 0-.931.044-1.342.132a4.575 4.575 0 00-1.21.418c-.396.19-.858.47-1.386.836l2.024-8.206h7.26v1.65h-5.808l-1.034 4.07c.367-.19.741-.33 1.122-.418a4.635 4.635 0 011.166-.154c.88 0 1.665.22 2.354.66a4.525 4.525 0 011.65 1.826c.396.777.594 1.68.594 2.706z" fill="#fff"/><defs><clipPath id="clip0_1669_2197"><path fill="#fff" transform="translate(30 30)" d="M0 0h61v61H0z"/></clipPath></defs></svg>