<svg width="126" height="120" fill="none" xmlns="http://www.w3.org/2000/svg"><rect x=".5" width="120" height="120" rx="60" fill="#F1F8FA"/><path d="M38.602 33.193c-1.063.366-1.869 1.257-2.094 2.31-.086.397-.108 6.746-.086 22.419l.032 21.86.226.494c.3.645.999 1.343 1.643 1.644.473.215.677.225 4.007.258l3.502.032.043 1.687c.032 1.439.064 1.761.269 2.18.29.645.988 1.343 1.632 1.644l.494.225h34.913l.494-.225c.644-.301 1.342-1 1.643-1.644l.226-.494V41.218l-.226-.494c-.3-.645-.999-1.343-1.643-1.644-.473-.215-.677-.225-4.007-.258l-3.502-.032-.043-1.687c-.032-1.439-.064-1.761-.269-2.18-.29-.645-.988-1.343-1.632-1.644l-.495-.225-17.294-.022c-16.189-.021-17.328-.01-17.833.161zm35.042 2.31l.3.29.054 9.023.054 9.024.279.268c.15.15.44.301.655.333.322.054.44.011.742-.257l.365-.323.032-6.466.021-6.457 3.33.033 3.33.032.29.3.301.29v43.614l-.3.29-.29.3h-34.16l-.29-.3c-.301-.29-.301-.322-.334-1.794L47.98 82.2h19.648l.419-.311c.72-.537 7.863-7.788 7.981-8.1.172-.43.161-10.86 0-11.172-.193-.376-.548-.612-.956-.612-.408 0-.763.236-.956.612-.086.161-.118 1.687-.118 4.963v4.737h-2.75c-1.848 0-2.9.043-3.201.13-.591.171-1.483 1.063-1.654 1.654-.086.3-.13 1.353-.13 3.2v2.75l-13.535-.02-13.535-.033-.29-.3-.3-.29V57.61c0-21.645 0-21.795.214-22.032.118-.129.312-.28.43-.333.118-.043 7.842-.075 17.155-.064l16.951.021.29.3zm-3.19 40.95l-1.988 1.986-.032-1.836c-.022-1.268.01-1.891.096-1.988.097-.118.537-.15 2.02-.15h1.89l-1.987 1.987z" fill="#000"/><path d="M43.436 41.26c-.666.28-.849 1.204-.333 1.709l.28.29h25.78l.28-.29a1.044 1.044 0 000-1.461l-.28-.29-12.761-.022c-7.015-.01-12.848.022-12.966.065zm0 5.587c-.666.279-.849 1.203-.333 1.708l.28.29h25.78l.28-.29a1.044 1.044 0 000-1.461l-.28-.29-12.761-.022c-7.015-.01-12.848.022-12.966.065zm0 5.586c-.666.279-.849 1.203-.333 1.708l.28.29h25.78l.28-.29a1.044 1.044 0 000-1.461l-.28-.29-12.761-.022c-7.015-.01-12.848.022-12.966.065zm30.96 5.102c-.516.484-.495 1.193.064 1.611.752.559 1.87-.16 1.644-1.074-.118-.44-.57-.795-1.032-.795a.968.968 0 00-.676.258zm-30.96.484c-.666.279-.849 1.203-.333 1.708l.28.29 6.015.032 6.005.021.354-.311c.29-.258.355-.387.355-.763s-.065-.505-.355-.763l-.343-.311-5.887.01c-3.233 0-5.973.044-6.09.087zm16.146.086c-.688.44-.677 1.375.043 1.794.676.408 1.536-.108 1.536-.914 0-.784-.924-1.3-1.58-.88zm-14.405 5.51c-1.128.29-2.116 1.117-2.621 2.202-.247.548-.3.785-.29 1.558 0 .773.043 1.02.3 1.568a4.07 4.07 0 001.945 1.945c.548.247.784.3 1.558.3.773 0 1.01-.053 1.557-.3a4.07 4.07 0 001.945-1.945c.257-.558.3-.795.3-1.568s-.043-1.01-.3-1.568a3.837 3.837 0 00-3.255-2.245c-.398-.022-.913 0-1.139.053zm1.89 2.396c1.053.795.882 2.352-.31 2.922-1.15.537-2.525-.462-2.375-1.73.14-1.3 1.665-1.976 2.686-1.192zm5.383.397c-.345.14-.688.634-.688.978 0 .193.118.44.311.655l.312.355h8.185l.29-.301a.999.999 0 000-1.44l-.29-.3-3.953-.022c-2.17-.01-4.05.022-4.168.075z" fill="#000"/><rect x="85.5" width="40" height="40" rx="20" fill="#000"/><path d="M99.527 24.92l8.536-12.32h.77V28h-1.87V16.758l-4.356 6.512h8.646v1.65H99.527z" fill="#fff"/></svg>