<svg width="125" height="120" fill="none" xmlns="http://www.w3.org/2000/svg"><rect width="120" height="120" rx="60" fill="#F1F8FA"/><path fill-rule="evenodd" clip-rule="evenodd" d="M68.993 32H43.92c-1.57 0-3.077.63-4.187 1.75A6.012 6.012 0 0038 37.978v43.044C38 84.323 40.651 87 43.921 87H77.08c1.57 0 3.076-.63 4.187-1.75A6.013 6.013 0 0083 81.022v-34.88c0-.95-.374-1.863-1.041-2.536L71.505 33.051a3.534 3.534 0 00-2.512-1.05V32zM80.63 47.543v33.479a3.6 3.6 0 01-1.04 2.536 3.531 3.531 0 01-2.512 1.05H43.92c-1.962 0-3.552-1.605-3.552-3.586V37.978a3.6 3.6 0 011.04-2.536 3.531 3.531 0 012.512-1.051h23.684a1.19 1.19 0 011.185 1.196v4.782c0 1.586.624 3.107 1.733 4.228a5.897 5.897 0 004.188 1.75h4.737c.313 0 .615.126.837.351.222.223.347.528.347.845zM71.158 36.08v4.287a3.6 3.6 0 001.04 2.537 3.531 3.531 0 002.512 1.05h4.247l-7.8-7.874z" fill="#000"/><path fill-rule="evenodd" clip-rule="evenodd" d="M45.452 53.172l2.368 2.39a1.175 1.175 0 001.675 0l4.737-4.782a1.205 1.205 0 000-1.69 1.177 1.177 0 00-1.675 0l-3.9 3.937-1.53-1.546a1.178 1.178 0 00-1.675 0 1.206 1.206 0 000 1.69zm0 11.955l2.368 2.392a1.175 1.175 0 001.675 0l4.737-4.783a1.205 1.205 0 000-1.69 1.177 1.177 0 00-1.675 0l-3.9 3.937-1.53-1.546a1.177 1.177 0 00-1.675 0 1.205 1.205 0 000 1.69zm0 11.957l2.368 2.392a1.175 1.175 0 001.675 0l4.737-4.783a1.206 1.206 0 000-1.69 1.178 1.178 0 00-1.675 0l-3.9 3.937-1.53-1.546a1.177 1.177 0 00-1.675 0 1.205 1.205 0 000 1.69zm12.68-23.562H74.71a1.19 1.19 0 001.185-1.196c0-.66-.53-1.196-1.185-1.196H58.132a1.19 1.19 0 00-1.185 1.196c0 .66.53 1.196 1.185 1.196zm0 11.956H74.71a1.19 1.19 0 001.185-1.195c0-.66-.53-1.196-1.185-1.196H58.132a1.19 1.19 0 00-1.185 1.196c0 .66.53 1.195 1.185 1.195zm0 11.957H74.71a1.19 1.19 0 001.185-1.196c0-.66-.53-1.195-1.185-1.195H58.132a1.19 1.19 0 00-1.185 1.195c0 .66.53 1.196 1.185 1.196z" fill="#000"/><rect x="85" width="40" height="40" rx="20" fill="#000"/><path d="M101.808 15.636V13.7l5.28-1.32V28h-1.87V14.624l-3.41 1.012z" fill="#fff"/></svg>