<svg width="50" height="50" fill="none" xmlns="http://www.w3.org/2000/svg"><g clip-path="url(#clip0_871_5536)"><path d="M50 25c0 13.813-11.188 25-25 25C11.187 50 0 38.812 0 25 0 11.187 11.188 0 25 0c13.813 0 25 11.188 25 25z" fill="url(#paint0_linear_871_5536)"/><path d="M20.415 36.459c-.812 0-.666-.313-.958-1.083l-2.375-7.834 14.75-9.208 1.73.458-1.438 3.917-11.709 13.75z" fill="#C8DAEA"/><path d="M20.418 36.458c.625 0 .896-.291 1.25-.625.542-.52 7.5-7.291 7.5-7.291l-4.27-1.042-3.96 2.5-.52 6.25v.208z" fill="#A9C9DD"/><path d="M20.834 30.084l10.083 7.437c1.146.625 1.98.313 2.27-1.062l4.105-19.334c.417-1.687-.646-2.437-1.75-1.937l-24.083 9.291c-1.646.667-1.625 1.584-.292 1.98l6.188 1.937 14.312-9.02c.667-.417 1.292-.188.792.27L20.834 30.084z" fill="url(#paint1_linear_871_5536)"/></g><defs><linearGradient id="paint0_linear_871_5536" x1="32.327" y1="7.902" x2="19.827" y2="37.068" gradientUnits="userSpaceOnUse"><stop stop-color="#37AEE2"/><stop offset="1" stop-color="#1E96C8"/></linearGradient><linearGradient id="paint1_linear_871_5536" x1="26.873" y1="25.782" x2="32.082" y2="34.116" gradientUnits="userSpaceOnUse"><stop stop-color="#EFF7FC"/><stop offset="1" stop-color="#fff"/></linearGradient><clipPath id="clip0_871_5536"><path fill="#fff" d="M0 0h50v50H0z"/></clipPath></defs></svg>