<svg width="50" height="50" fill="none" xmlns="http://www.w3.org/2000/svg"><g clip-path="url(#clip0_871_5541)"><path d="M43.75 0H6.25A6.25 6.25 0 000 6.25v37.5A6.25 6.25 0 006.25 50h37.5A6.25 6.25 0 0050 43.75V6.25A6.25 6.25 0 0043.75 0z" fill="#7B519D"/><path fill-rule="evenodd" clip-rule="evenodd" d="M35.783 30.815c-.793-.639-1.64-1.212-2.474-1.797-1.663-1.168-3.184-1.259-4.426.62-.697 1.056-1.672 1.102-2.693.64-2.812-1.276-4.984-3.241-6.256-6.1-.563-1.265-.556-2.398.761-3.293.697-.473 1.4-1.033 1.343-2.067-.073-1.347-3.346-5.852-4.638-6.327-.534-.197-1.067-.184-1.611-.001-3.03 1.019-4.286 3.511-3.083 6.462 3.585 8.804 9.896 14.933 18.584 18.673.495.213 1.045.298 1.324.375 1.978.02 4.294-1.886 4.964-3.777.644-1.82-.718-2.541-1.795-3.408zm-9.74-17.422c6.35.977 9.28 3.997 10.088 10.394.075.59-.145 1.48.698 1.496.881.017.67-.86.676-1.45.075-6.025-5.178-11.61-11.279-11.816-.46.066-1.412-.317-1.472.714-.04.696.763.582 1.289.662z" fill="#fff"/><path fill-rule="evenodd" clip-rule="evenodd" d="M27.284 15.148c-.611-.074-1.418-.362-1.56.486-.15.89.75.8 1.327.928 3.922.877 5.288 2.305 5.934 6.196.094.567-.093 1.45.87 1.303.715-.108.457-.865.517-1.307.032-3.736-3.17-7.136-7.088-7.606z" fill="#fff"/><path fill-rule="evenodd" clip-rule="evenodd" d="M27.644 18.202c-.407.01-.807.054-.957.49-.226.651.248.806.73.884 1.61.258 2.456 1.207 2.617 2.811.043.436.32.789.74.74.583-.07.636-.59.618-1.082.029-1.803-2.009-3.886-3.748-3.843z" fill="#fff"/></g><defs><clipPath id="clip0_871_5541"><rect width="50" height="50" rx="25" fill="#fff"/></clipPath></defs></svg>