<svg width="50" height="50" fill="none" xmlns="http://www.w3.org/2000/svg"><path d="M11.898 45.176l.903.459A23.274 23.274 0 0024.976 49C38.164 48.97 49 37.93 49 24.527c0-6.477-2.531-12.698-7.033-17.283C37.472 2.61 31.33 0 24.93 0 11.801 0 1 10.979 1 24.32a25.403 25.403 0 003.613 13.163l.602.917-2.407 9.024 9.09-2.248z" fill="#00E676"/><path d="M37.19 29.926l-1.498-.68s-2.177-.953-3.538-1.634c-.136 0-.272-.136-.408-.136a1.973 1.973 0 00-.952.272c-.29.17-.137.136-2.042 2.314a.748.748 0 01-.68.408h-.136a1.037 1.037 0 01-.544-.272l-.68-.272a13.21 13.21 0 01-3.947-2.586c-.272-.272-.68-.544-.953-.816a15.223 15.223 0 01-2.585-3.266l-.136-.272a1.979 1.979 0 01-.272-.545 1.019 1.019 0 01.136-.68c.124-.204.544-.68.952-1.089.409-.408.409-.68.68-.952a1.678 1.678 0 00.273-1.36 53.115 53.115 0 00-2.177-5.172 1.581 1.581 0 00-.953-.68h-1.497c-.272 0-.544.136-.816.136l-.136.136c-.272.136-.545.408-.817.544-.272.136-.408.545-.68.817a6.938 6.938 0 00-1.497 4.218 8.057 8.057 0 00.68 3.13l.137.408a22.683 22.683 0 005.034 6.94l.545.544c.396.328.76.693 1.088 1.089a24.296 24.296 0 009.784 5.17c.409.137.953.137 1.361.273h1.36a5.036 5.036 0 002.042-.544c.333-.151.652-.334.953-.545l.272-.272c.272-.272.544-.408.816-.68a3.6 3.6 0 00.68-.817c.262-.61.445-1.249.545-1.905v-.952a1.711 1.711 0 00-.409-.272" fill="#fff"/></svg>