<svg width="125" height="120" viewBox="0 0 125 120" fill="none" xmlns="http://www.w3.org/2000/svg">
<rect width="120" height="120" rx="60" fill="#F1F8FA"/>
<g clip-path="url(#clip0_1669_1387)">
<path d="M690.827 423.147H666.754C662.894 368.287 657.019 307.767 649.394 295.887C638.378 278.689 612.696 268.767 582.946 257.277C575.555 254.418 567.915 251.475 560.358 248.345C542.384 240.819 531.612 235.913 525.498 232.97L525.31 213.84C530.305 207.657 537.024 196.413 540.894 177.798C541.811 177.298 542.717 176.725 543.597 176.095C553.394 169.137 559.733 155.346 560.196 146.257C560.363 143.668 561.488 121.23 550.186 110.111C551.701 96.8873 552.404 87.0326 551.758 80.2313C548.441 45.9086 515.368 10.3979 465.742 10.3979C416.149 10.3979 383.054 45.9033 379.712 80.2473C379.061 87.117 379.764 96.9553 381.28 110.122C369.92 121.278 371.097 143.701 371.259 146.215C371.858 155.601 378.285 169.382 388.035 176.215C388.858 176.788 389.707 177.314 390.566 177.788C394.42 196.408 401.144 207.663 406.154 213.846L405.961 232.966C399.826 235.913 389.065 240.815 371.139 248.315C335.352 263.122 307.081 274.815 293.565 295.872C292.899 296.909 292.018 298.284 291.393 302.617C244.691 303.242 159.544 314.289 155.847 314.773C147.664 315.846 141.904 323.331 142.966 331.513C143.951 339.039 150.367 344.513 157.753 344.513C158.404 344.513 159.05 344.477 159.711 344.388C160.592 344.269 245.738 333.227 290.894 332.487C291.561 350.43 293.42 377.581 297.384 419.066H237.78C231.118 393.441 207.862 374.43 180.181 374.43C147.342 374.43 120.613 401.154 120.613 433.998C120.613 466.842 147.337 493.566 180.181 493.566C207.858 493.566 231.118 474.555 237.78 448.93H300.364C303.619 480.566 307.874 518.914 313.379 565.378H135.046C126.801 565.378 120.114 572.071 120.114 580.31C120.114 588.555 126.807 595.242 135.046 595.242H210.557C210.551 595.398 210.505 595.554 210.505 595.721C210.505 614.7 195.062 630.142 176.083 630.142H131.281C112.291 630.142 96.8539 614.7 96.8539 595.721V416.041C96.8539 410.156 97.3018 403.729 98.2029 396.41L101.302 377.108C102.614 368.962 97.0778 361.301 88.9321 359.993C80.781 358.644 73.1254 364.217 71.8174 372.363L70.682 379.441L65.6612 379.446C51.2132 379.446 39.4585 367.696 39.4585 353.238C39.4585 338.79 51.2085 327.035 65.6612 327.035H105.615C111.812 327.035 117.365 323.207 119.568 317.41C142.131 258.041 175.136 210.884 192.86 185.556C195.256 182.129 197.349 179.155 199.042 176.649C225.698 159.217 274.454 148.852 330.359 148.852C338.604 148.852 345.291 142.159 345.291 133.92C345.291 125.675 338.599 118.988 330.359 118.988C266.021 118.988 211.094 131.639 179.679 153.701C178.143 154.785 176.82 156.134 175.789 157.701C173.976 160.457 171.45 164.061 168.388 168.441C152.117 191.692 119.169 238.78 95.429 297.176H65.6637C34.7424 297.176 9.5957 322.321 9.5957 353.244C9.5957 384.166 34.741 409.317 65.6637 409.317H67.1325C67.0335 411.619 66.9815 413.848 66.9815 416.036V595.716C66.9815 631.169 95.8255 660.003 131.279 660.003H176.081C211.535 660.003 240.368 631.164 240.368 595.716C240.368 595.549 240.321 595.393 240.316 595.237H316.952C320.728 626.487 325.015 660.986 329.879 699.21C330.853 706.762 337.28 712.262 344.686 712.262C345.321 712.262 345.957 712.226 346.597 712.142C354.78 711.095 360.561 703.616 359.524 695.44C342.327 560.413 316.806 339.72 319.936 310.266C329.447 297.881 354.166 287.662 382.63 275.892C418.124 261.032 427.578 255.517 428.526 254.933C432.963 252.261 435.692 247.48 435.744 242.308L436.093 208.131C436.14 203.443 434.411 199.36 430.703 196.495C430.614 196.407 421.599 188.037 418.479 163.673C417.927 159.334 415.505 155.459 411.843 153.068C409.52 151.553 406.854 150.73 404.14 150.641C402.781 148.886 401.27 145.855 401.072 144.256C400.854 141.021 401.291 136.391 401.984 133.308C404.02 132.657 405.932 131.568 407.552 130.068C411.114 126.792 412.859 121.99 412.239 117.188C411.203 109.089 408.781 90.1308 409.447 83.0948C411.515 62.0428 433.13 40.2561 465.759 40.2561C498.405 40.2561 520.014 62.0374 522.035 83.0681C522.702 90.0212 520.364 108.385 519.244 117.204C518.639 122.006 520.384 126.793 523.947 130.079C525.561 131.563 527.457 132.657 529.488 133.313C530.181 136.407 530.613 141.063 530.4 144.381C530.197 145.965 528.707 148.912 527.369 150.647C524.66 150.73 521.978 151.548 519.655 153.063C516.004 155.454 513.577 159.329 513.009 163.657C509.91 187.657 501.15 196.152 501.197 196.157C497.499 199.017 495.358 203.444 495.405 208.121L495.743 242.298C495.795 247.47 498.519 252.251 502.946 254.934C503.91 255.507 513.348 261.027 548.905 275.923C556.754 279.163 564.608 282.204 572.208 285.137C593.593 293.397 617.786 302.741 624.01 311.606C628.208 321.955 633.724 377.961 637.75 437.137C637.73 437.459 637.652 437.756 637.652 438.079C637.652 439.199 637.803 440.282 638.032 441.334C638.667 450.892 639.266 460.496 639.808 469.985L517.698 599.829C516.922 600.652 516.287 601.548 515.73 602.48H442.208V453H529.958C538.202 453 544.89 446.307 544.89 438.068C544.89 429.823 538.197 423.136 529.958 423.136H427.275C419.03 423.136 412.343 429.829 412.343 438.068V617.415C412.343 625.66 419.036 632.347 427.275 632.347H597.462L597.467 697.325C597.467 705.57 604.159 712.258 612.399 712.258C620.644 712.258 627.331 705.565 627.331 697.325V632.356H690.836C699.081 632.356 705.768 625.664 705.768 617.424V438.078C705.768 429.833 699.086 423.146 690.836 423.146L690.827 423.147ZM180.187 463.699C163.812 463.699 150.484 450.376 150.484 433.996C150.484 417.616 163.807 404.293 180.187 404.293C196.567 404.293 209.89 417.616 209.89 433.996C209.89 450.376 196.562 463.699 180.187 463.699ZM675.907 602.499H556.194L665.954 485.78C668.756 482.806 670.209 478.806 669.985 474.728C669.61 467.983 669.193 460.671 668.724 453.025H675.907L675.907 602.499Z" fill="black"/>
<path d="M86.3831 64.3441H84.4967C84.1943 60.0451 83.7339 55.3026 83.1363 54.3717C82.2731 53.024 80.2606 52.2465 77.9293 51.3461C77.3501 51.1221 76.7514 50.8915 76.1592 50.6462C74.7508 50.0564 73.9066 49.672 73.4275 49.4414L73.4128 47.9423C73.8042 47.4578 74.3307 46.5767 74.634 45.118C74.7058 45.0788 74.7769 45.0339 74.8458 44.9845C75.6135 44.4392 76.1103 43.3585 76.1465 42.6463C76.1596 42.4434 76.2478 40.6851 75.3621 39.8138C75.4809 38.7775 75.536 38.0053 75.4854 37.4723C75.2254 34.7827 72.6337 32 68.7449 32C64.8586 32 62.2652 34.7823 62.0033 37.4736C61.9523 38.0119 62.0074 38.7829 62.1262 39.8146C61.236 40.6889 61.3282 42.446 61.3409 42.643C61.3878 43.3785 61.8915 44.4584 62.6555 44.9939C62.72 45.0388 62.7865 45.08 62.8539 45.1172C63.1559 46.5763 63.6828 47.4582 64.0754 47.9427L64.0603 49.441C63.5795 49.672 62.7363 50.0561 61.3315 50.6438C58.5271 51.8041 56.3118 52.7204 55.2526 54.3705C55.2004 54.4518 55.1314 54.5595 55.0824 54.8991C51.4227 54.9481 44.7504 55.8137 44.4606 55.8517C43.8194 55.9358 43.368 56.5223 43.4513 57.1635C43.5284 57.7532 44.0313 58.1822 44.61 58.1822C44.661 58.1822 44.7116 58.1793 44.7635 58.1724C44.8325 58.163 51.5048 57.2978 55.0433 57.2398C55.0956 58.6458 55.2413 60.7734 55.5519 64.0243H50.8811C50.3591 62.0163 48.5367 60.5265 46.3675 60.5265C43.7942 60.5265 41.6996 62.6207 41.6996 65.1945C41.6996 67.7682 43.7938 69.8624 46.3675 69.8624C48.5364 69.8624 50.3591 68.3726 50.8811 66.3646H55.7854C56.0405 68.8437 56.3739 71.8487 56.8053 75.4897H42.8306C42.1845 75.4897 41.6605 76.0142 41.6605 76.6599C41.6605 77.3059 42.185 77.83 42.8306 77.83H48.7479C48.7474 77.8422 48.7438 77.8545 48.7438 77.8675C48.7438 79.3547 47.5336 80.5649 46.0464 80.5649H42.5356C41.0475 80.5649 39.8378 79.3547 39.8378 77.8675V63.7873C39.8378 63.3261 39.8729 62.8225 39.9435 62.249L40.1863 60.7364C40.2892 60.0981 39.8553 59.4977 39.217 59.3952C38.5783 59.2895 37.9784 59.7262 37.8759 60.3646L37.7869 60.9192L37.3934 60.9196C36.2613 60.9196 35.3401 59.9989 35.3401 58.8659C35.3401 57.7337 36.2609 56.8126 37.3934 56.8126H40.5243C41.01 56.8126 41.4451 56.5126 41.6177 56.0583C43.3858 51.406 45.9722 47.7106 47.3611 45.7258C47.5488 45.4573 47.7129 45.2242 47.8455 45.0279C49.9344 43.6619 53.755 42.8496 58.1359 42.8496C58.782 42.8496 59.306 42.3252 59.306 41.6795C59.306 41.0335 58.7816 40.5094 58.1359 40.5094C53.0942 40.5094 48.79 41.5008 46.3282 43.2297C46.2078 43.3145 46.1042 43.4203 46.0233 43.5431C45.8813 43.759 45.6834 44.0414 45.4434 44.3847C44.1684 46.2067 41.5865 49.8966 39.7261 54.4727H37.3936C34.9706 54.4727 33 56.4432 33 58.8663C33 61.2895 34.9705 63.2604 37.3936 63.2604H37.5087C37.501 63.4408 37.4969 63.6155 37.4969 63.7869V77.8671C37.4969 80.6453 39.7572 82.9048 42.5354 82.9048H46.0463C48.8245 82.9048 51.084 80.6449 51.084 77.8671C51.084 77.8541 51.0803 77.8418 51.0799 77.8296H57.0853C57.3812 80.2785 57.7171 82.9819 58.0983 85.9772C58.1746 86.569 58.6783 87 59.2586 87C59.3084 87 59.3582 86.9971 59.4084 86.9906C60.0495 86.9086 60.5026 86.3225 60.4214 85.6818C59.0737 75.1007 57.0738 57.8066 57.3191 55.4985C58.0644 54.528 60.0014 53.7272 62.232 52.8048C65.0134 51.6404 65.7542 51.2082 65.8285 51.1624C66.1762 50.9531 66.3901 50.5784 66.3942 50.1731L66.4215 47.4949C66.4252 47.1276 66.2897 46.8076 65.9991 46.5831C65.9922 46.5762 65.2857 45.9203 65.0412 44.011C64.9979 43.671 64.8081 43.3674 64.5212 43.18C64.3392 43.0613 64.1302 42.9968 63.9176 42.9899C63.8111 42.8523 63.6927 42.6148 63.6772 42.4895C63.66 42.236 63.6943 41.8732 63.7486 41.6316C63.9082 41.5806 64.058 41.4952 64.1849 41.3777C64.4641 41.121 64.6008 40.7447 64.5522 40.3684C64.471 39.7337 64.2812 38.2481 64.3335 37.6967C64.4955 36.047 66.1893 34.3398 68.7462 34.3398C71.3044 34.3398 72.9978 36.0466 73.1562 37.6946C73.2084 38.2395 73.0252 39.6786 72.9374 40.3696C72.8901 40.7459 73.0268 41.121 73.306 41.3785C73.4325 41.4949 73.581 41.5806 73.7402 41.632C73.7945 41.8744 73.8284 42.2393 73.8116 42.4993C73.7957 42.6234 73.679 42.8544 73.5741 42.9903C73.3619 42.9968 73.1517 43.0609 72.9696 43.1797C72.6835 43.367 72.4933 43.6706 72.4488 44.0098C72.206 45.8905 71.5195 46.5562 71.5232 46.5566C71.2334 46.7807 71.0657 47.1276 71.0693 47.4941L71.0959 50.1723C71.0999 50.5776 71.3134 50.9523 71.6603 51.1625C71.7358 51.2074 72.4754 51.64 75.2618 52.8073C75.8768 53.0611 76.4923 53.2995 77.0878 53.5293C78.7636 54.1766 80.6595 54.9088 81.1472 55.6035C81.4762 56.4144 81.9084 60.8032 82.2239 65.4404C82.2223 65.4657 82.2162 65.489 82.2162 65.5143C82.2162 65.602 82.228 65.6869 82.246 65.7694C82.2958 66.5183 82.3427 67.2709 82.3851 68.0145L72.8163 78.1894C72.7555 78.2539 72.7057 78.3241 72.662 78.3972H66.9007V66.6835H73.777C74.4231 66.6835 74.9471 66.1591 74.9471 65.5134C74.9471 64.8673 74.4226 64.3433 73.777 64.3433H65.7305C65.0844 64.3433 64.5604 64.8678 64.5604 65.5134V79.5675C64.5604 80.2136 65.0848 80.7376 65.7305 80.7376H79.0668L79.0672 85.8295C79.0672 86.4756 79.5916 86.9996 80.2373 86.9996C80.8834 86.9996 81.4074 86.4752 81.4074 85.8295V80.7383H86.3839C87.0299 80.7383 87.554 80.2139 87.554 79.5682V65.5141C87.554 64.8681 87.0303 64.344 86.3839 64.344L86.3831 64.3441ZM46.368 67.5219C45.0848 67.5219 44.0404 66.4779 44.0404 65.1943C44.0404 63.9107 45.0844 62.8667 46.368 62.8667C47.6516 62.8667 48.6956 63.9107 48.6956 65.1943C48.6956 66.4779 47.6512 67.5219 46.368 67.5219ZM85.214 78.3986H75.8329L84.434 69.2522C84.6536 69.0192 84.7675 68.7057 84.7499 68.3862C84.7205 67.8576 84.6879 67.2846 84.6511 66.6855H85.214L85.214 78.3986Z" fill="black"/>
<path d="M69.2416 60.5513V55.3006C69.2416 54.6545 68.7171 54.1305 68.0715 54.1305C67.4254 54.1305 66.9014 54.6549 66.9014 55.3006V60.5513C66.9014 61.1974 67.4258 61.7214 68.0715 61.7214C68.7176 61.7214 69.2416 61.1974 69.2416 60.5513Z" fill="black"/>
</g>
<rect x="85" width="40" height="40" rx="20" fill="black"/>
<path d="M104.561 20.41V19.2C105.06 19.2 105.5 19.134 105.881 19.002C106.262 18.8553 106.585 18.6647 106.849 18.43C107.113 18.1807 107.311 17.8947 107.443 17.572C107.59 17.2493 107.663 16.9047 107.663 16.538C107.663 16.054 107.575 15.6287 107.399 15.262C107.223 14.8807 106.959 14.5873 106.607 14.382C106.27 14.1767 105.844 14.074 105.331 14.074C104.612 14.074 104.004 14.3013 103.505 14.756C103.006 15.196 102.757 15.7533 102.757 16.428H100.975C100.975 15.6213 101.158 14.9173 101.525 14.316C101.906 13.7147 102.42 13.2453 103.065 12.908C103.725 12.556 104.473 12.38 105.309 12.38C106.189 12.38 106.944 12.5707 107.575 12.952C108.22 13.3333 108.712 13.832 109.049 14.448C109.401 15.064 109.577 15.7387 109.577 16.472C109.577 17.1907 109.364 17.8507 108.939 18.452C108.514 19.0533 107.927 19.53 107.179 19.882C106.431 20.234 105.558 20.41 104.561 20.41ZM105.221 28.22C104.473 28.22 103.798 28.11 103.197 27.89C102.596 27.67 102.082 27.3693 101.657 26.988C101.232 26.592 100.902 26.1373 100.667 25.624C100.432 25.096 100.315 24.5313 100.315 23.93H102.207C102.207 24.414 102.332 24.8467 102.581 25.228C102.845 25.6093 103.204 25.91 103.659 26.13C104.114 26.35 104.634 26.46 105.221 26.46C105.808 26.46 106.314 26.35 106.739 26.13C107.179 25.8953 107.516 25.5727 107.751 25.162C107.986 24.7513 108.103 24.2673 108.103 23.71C108.103 23.2407 108.008 22.83 107.817 22.478C107.641 22.1113 107.392 21.8107 107.069 21.576C106.746 21.3267 106.372 21.1433 105.947 21.026C105.522 20.9087 105.06 20.85 104.561 20.85V19.64C105.309 19.64 106.006 19.7207 106.651 19.882C107.311 20.0433 107.89 20.3 108.389 20.652C108.902 20.9893 109.298 21.4293 109.577 21.972C109.87 22.5147 110.017 23.1673 110.017 23.93C110.017 24.7953 109.804 25.5507 109.379 26.196C108.968 26.8413 108.404 27.34 107.685 27.692C106.966 28.044 106.145 28.22 105.221 28.22Z" fill="white"/>
<defs>
<clipPath id="clip0_1669_1387">
<rect width="100" height="100" fill="white" transform="translate(10 10)"/>
</clipPath>
</defs>
</svg>
