<svg width="126" height="120" viewBox="0 0 126 120" fill="none" xmlns="http://www.w3.org/2000/svg">
<rect x="0.5" width="120" height="120" rx="60" fill="#F1F8FA"/>
<path d="M57.024 43.6621L47.7208 32.924C46.6483 31.6865 44.6821 31.692 43.4363 32.9405L35.7859 40.6043C33.5089 42.8839 32.8571 46.2689 34.1744 48.983C42.0438 65.2757 55.1844 78.434 71.4669 86.3258C74.1783 87.6429 77.5608 86.9912 79.8378 84.7116L87.5597 76.9763C88.811 75.7251 88.8137 73.748 87.5652 72.6756L76.7853 63.4224C75.6578 62.4544 73.9061 62.5809 72.7759 63.7139L69.0249 67.4701C68.8328 67.6714 68.5801 67.8041 68.3054 67.8478C68.0306 67.8915 67.7492 67.8438 67.5041 67.7121C61.3729 64.1816 56.2869 59.0893 52.7642 52.9538C52.6323 52.7083 52.5846 52.4264 52.6283 52.1512C52.672 51.8761 52.8048 51.6228 53.0062 51.4304L56.7462 47.6878C57.8792 46.5494 58.003 44.7895 57.024 43.6593V43.6621Z" stroke="#020202" stroke-width="2.06715" stroke-linecap="round" stroke-linejoin="round"/>
<rect x="85.5" width="40" height="40" rx="20" fill="black"/>
<path d="M99.6773 28L106.959 20.234C107.297 19.8673 107.583 19.508 107.817 19.156C108.067 18.7893 108.25 18.4227 108.367 18.056C108.499 17.6747 108.565 17.2787 108.565 16.868C108.565 16.5307 108.499 16.2007 108.367 15.878C108.235 15.5553 108.037 15.262 107.773 14.998C107.524 14.734 107.216 14.5213 106.849 14.36C106.483 14.1987 106.065 14.118 105.595 14.118C104.935 14.118 104.363 14.272 103.879 14.58C103.41 14.8733 103.051 15.306 102.801 15.878C102.552 16.4353 102.427 17.1027 102.427 17.88H100.557C100.557 16.78 100.755 15.8193 101.151 14.998C101.547 14.162 102.119 13.5167 102.867 13.062C103.63 12.5927 104.539 12.358 105.595 12.358C106.446 12.358 107.179 12.5047 107.795 12.798C108.411 13.0767 108.917 13.4433 109.313 13.898C109.709 14.338 110.003 14.8147 110.193 15.328C110.384 15.8413 110.479 16.3327 110.479 16.802C110.479 17.594 110.289 18.3787 109.907 19.156C109.526 19.9333 109.035 20.63 108.433 21.246L103.527 26.24H110.545V28H99.6773Z" fill="white"/>
</svg>
