<svg width="125" height="120" viewBox="0 0 125 120" fill="none" xmlns="http://www.w3.org/2000/svg">
<rect width="120" height="120" rx="60" fill="#F1F8FA"/>
<g clip-path="url(#clip0_1669_2197)">
<path fill-rule="evenodd" clip-rule="evenodd" d="M35.0681 40.5682H85.9319C87.279 40.5682 88.56 41.1019 89.5106 42.0576C90.4612 43.0082 91 44.2892 91 45.6363V75.6635C91 77.0106 90.4662 78.2916 89.5106 79.2422C88.56 80.1928 87.279 80.7316 85.9319 80.7316H35.0681C33.721 80.7316 32.44 80.1979 31.4894 79.2422C30.5338 78.2865 30 77.0055 30 75.6584V45.6312C30 44.2892 30.5338 43.0082 31.4894 42.0525C32.44 41.1019 33.721 40.5631 35.0681 40.5631V40.5682ZM85.937 43.3844H35.0681C34.4683 43.3844 33.904 43.6233 33.4821 44.0452C33.0602 44.4671 32.8212 45.0364 32.8212 45.6312V75.6584C32.8212 76.2583 33.0602 76.8225 33.4821 77.2444C33.904 77.6664 34.4733 77.9053 35.0681 77.9053H85.9319C86.5317 77.9053 87.096 77.6664 87.5179 77.2444C87.9398 76.8225 88.1787 76.2532 88.1787 75.6584V45.6312C88.1787 45.0314 87.9398 44.4671 87.5179 44.0452C87.096 43.6233 86.5267 43.3844 85.9319 43.3844H85.937Z" fill="#1A1A1A"/>
<path d="M92 50.5603V54.4367V55H91.0449H31.9551H31V54.4367V50.5603V50H31.9551H91.0449H92V50.5603Z" fill="#1A1A1A"/>
<path d="M40.5071 62.5232C41.1883 62.5232 41.844 62.6452 42.454 62.8689C42.51 62.8892 42.5608 62.9095 42.6116 62.9299C42.3829 63.1078 42.1592 63.3009 41.9508 63.5094C40.7155 64.7446 40.0242 66.4069 40.0242 68.1555C40.0242 69.9042 40.7155 71.5664 41.9508 72.8017C42.1592 73.0101 42.3778 73.2033 42.6116 73.3812C42.5608 73.4015 42.5049 73.4219 42.454 73.4422C41.844 73.6659 41.1883 73.7879 40.5071 73.7879C38.9516 73.7879 37.5435 73.1575 36.5269 72.1409C35.5102 71.1242 34.8799 69.7161 34.8799 68.1606C34.8799 66.6051 35.5102 65.197 36.5269 64.1804C37.5435 63.1637 38.9516 62.5334 40.5071 62.5334V62.5232Z" fill="#1A1A1A"/>
<path d="M42.6167 64.1702C43.6334 63.1535 45.0415 62.5232 46.597 62.5232C48.1525 62.5232 49.5606 63.1535 50.5772 64.1702C51.5939 65.1869 52.2242 66.5949 52.2242 68.1504C52.2242 69.7059 51.5939 71.114 50.5772 72.1307C49.5606 73.1474 48.1525 73.7777 46.597 73.7777C45.0415 73.7777 43.6334 73.1474 42.6167 72.1307C41.6001 71.114 40.9697 69.7059 40.9697 68.1504C40.9697 66.5949 41.6001 65.1869 42.6167 64.1702Z" fill="#1A1A1A"/>
<path fill-rule="evenodd" clip-rule="evenodd" d="M57.3941 66.7474H63.4077C64.1397 66.7474 64.7345 67.3778 64.7345 68.1555C64.7345 68.9333 64.1397 69.5636 63.4077 69.5636H57.3941C56.6621 69.5636 56.0674 68.9333 56.0674 68.1555C56.0674 67.3778 56.6621 66.7474 57.3941 66.7474ZM67.8658 66.7474H73.8794C74.6114 66.7474 75.2061 67.3778 75.2061 68.1555C75.2061 68.9333 74.6114 69.5636 73.8794 69.5636H67.8658C67.1338 69.5636 66.539 68.9333 66.539 68.1555C66.539 67.3778 67.1338 66.7474 67.8658 66.7474ZM78.3375 66.7474H84.351C85.083 66.7474 85.6778 67.3778 85.6778 68.1555C85.6778 68.9333 85.083 69.5636 84.351 69.5636H78.3375C77.6055 69.5636 77.0107 68.9333 77.0107 68.1555C77.0107 67.3778 77.6055 66.7474 78.3375 66.7474Z" fill="#1A1A1A"/>
</g>
<rect x="85" width="40" height="40" rx="20" fill="black"/>
<path d="M110.319 22.94C110.319 23.82 110.18 24.59 109.901 25.25C109.622 25.91 109.234 26.46 108.735 26.9C108.236 27.34 107.664 27.67 107.019 27.89C106.374 28.11 105.677 28.22 104.929 28.22C103.99 28.22 103.169 28.0733 102.465 27.78C101.776 27.4867 101.182 27.098 100.683 26.614C100.199 26.1153 99.7883 25.5727 99.451 24.986L101.035 23.908C101.27 24.348 101.578 24.766 101.959 25.162C102.355 25.5433 102.81 25.8587 103.323 26.108C103.836 26.3427 104.372 26.46 104.929 26.46C105.662 26.46 106.286 26.3133 106.799 26.02C107.312 25.7267 107.701 25.316 107.965 24.788C108.244 24.26 108.383 23.644 108.383 22.94C108.383 22.236 108.229 21.62 107.921 21.092C107.628 20.564 107.217 20.1533 106.689 19.86C106.176 19.5667 105.589 19.42 104.929 19.42C104.445 19.42 103.998 19.464 103.587 19.552C103.191 19.6253 102.788 19.7647 102.377 19.97C101.981 20.1607 101.519 20.4393 100.991 20.806L103.015 12.6H110.275V14.25H104.467L103.433 18.32C103.8 18.1293 104.174 17.99 104.555 17.902C104.951 17.7993 105.34 17.748 105.721 17.748C106.601 17.748 107.386 17.968 108.075 18.408C108.779 18.848 109.329 19.4567 109.725 20.234C110.121 21.0113 110.319 21.9133 110.319 22.94Z" fill="white"/>
<defs>
<clipPath id="clip0_1669_2197">
<rect width="61" height="61" fill="white" transform="translate(30 30)"/>
</clipPath>
</defs>
</svg>
