<svg width="126" height="120" viewBox="0 0 126 120" fill="none" xmlns="http://www.w3.org/2000/svg">
<rect x="0.5" width="120" height="120" rx="60" fill="#F1F8FA"/>
<path d="M38.6025 33.1934C37.539 33.5586 36.7333 34.4502 36.5077 35.5029C36.4218 35.9004 36.4003 42.249 36.4218 57.9219L36.454 79.7822L36.6796 80.2764C36.9804 80.9209 37.6786 81.6191 38.3232 81.9199C38.7958 82.1348 38.9999 82.1455 42.33 82.1777L45.832 82.21L45.8749 83.8965C45.9072 85.3359 45.9394 85.6582 46.1435 86.0771C46.4335 86.7217 47.1318 87.4199 47.7763 87.7207L48.2704 87.9463H65.7265H83.1826L83.6767 87.7207C84.3212 87.4199 85.0195 86.7217 85.3202 86.0771L85.5458 85.583V63.4004V41.2178L85.3202 40.7236C85.0195 40.0791 84.3212 39.3809 83.6767 39.0801C83.204 38.8652 82.9999 38.8545 79.6699 38.8223L76.1679 38.79L76.1249 37.1035C76.0927 35.6641 76.0605 35.3418 75.8564 34.9229C75.5663 34.2783 74.8681 33.5801 74.2236 33.2793L73.7294 33.0537L56.4345 33.0322C40.246 33.0107 39.1074 33.0215 38.6025 33.1934ZM73.6435 35.5029L73.9443 35.793L73.998 44.8164L74.0517 53.8398L74.331 54.1084C74.4814 54.2588 74.7714 54.4092 74.9863 54.4414C75.3085 54.4951 75.4267 54.4521 75.7275 54.1836L76.0927 53.8613L76.1249 47.3945L76.1464 40.9385L79.4765 40.9707L82.8066 41.0029L83.0966 41.3037L83.3974 41.5938V63.4004V85.207L83.0966 85.4971L82.8066 85.7979H65.7265H48.6464L48.3564 85.4971C48.0556 85.207 48.0556 85.1748 48.0234 83.7031L47.9804 82.1992H57.8095H67.6279L68.0468 81.8877C68.7665 81.3506 75.9101 74.0996 76.0283 73.7881C76.2001 73.3584 76.1894 62.9277 76.0283 62.6162C75.8349 62.2402 75.4804 62.0039 75.0722 62.0039C74.664 62.0039 74.3095 62.2402 74.1161 62.6162C74.0302 62.7773 73.998 64.3027 73.998 67.5791V72.3164H71.248C69.4003 72.3164 68.3476 72.3594 68.0468 72.4453C67.456 72.6172 66.5644 73.5088 66.3925 74.0996C66.3066 74.4004 66.2636 75.4531 66.2636 77.3008V80.0508L52.7285 80.0293L39.1933 79.9971L38.9033 79.6963L38.6025 79.4062V57.6104C38.6025 35.9648 38.6025 35.8145 38.8173 35.5781C38.9355 35.4492 39.1288 35.2988 39.247 35.2451C39.3652 35.2021 47.0888 35.1699 56.4023 35.1807L73.3535 35.2021L73.6435 35.5029ZM70.4531 76.4521L68.4658 78.4395L68.4335 76.6025C68.412 75.335 68.4443 74.7119 68.5302 74.6152C68.6269 74.4971 69.0673 74.4648 70.5497 74.4648H72.4404L70.4531 76.4521Z" fill="black"/>
<path d="M43.4361 41.2607C42.7701 41.54 42.5875 42.4639 43.1031 42.9688L43.3824 43.2588H56.273H69.1636L69.4429 42.9688C69.8404 42.5713 69.8404 41.9053 69.4429 41.5078L69.1636 41.2178L56.4019 41.1963C49.3873 41.1855 43.5543 41.2178 43.4361 41.2607Z" fill="black"/>
<path d="M43.4361 46.8467C42.7701 47.126 42.5875 48.0498 43.1031 48.5547L43.3824 48.8447H56.273H69.1636L69.4429 48.5547C69.8404 48.1572 69.8404 47.4912 69.4429 47.0938L69.1636 46.8037L56.4019 46.7822C49.3873 46.7715 43.5543 46.8037 43.4361 46.8467Z" fill="black"/>
<path d="M43.4361 52.4326C42.7701 52.7119 42.5875 53.6357 43.1031 54.1406L43.3824 54.4307H56.273H69.1636L69.4429 54.1406C69.8404 53.7432 69.8404 53.0771 69.4429 52.6797L69.1636 52.3896L56.4019 52.3682C49.3873 52.3574 43.5543 52.3896 43.4361 52.4326Z" fill="black"/>
<path d="M74.3957 57.5351C73.88 58.0185 73.9015 58.7275 74.4601 59.1464C75.2121 59.705 76.3293 58.9853 76.1037 58.0722C75.9855 57.6318 75.5343 57.2773 75.0724 57.2773C74.8039 57.2773 74.589 57.3632 74.3957 57.5351Z" fill="black"/>
<path d="M43.4361 58.0186C42.7701 58.2979 42.5875 59.2217 43.1031 59.7266L43.3824 60.0166L49.398 60.0488L55.4029 60.0703L55.7574 59.7588C56.0474 59.501 56.1119 59.3721 56.1119 58.9961C56.1119 58.6201 56.0474 58.4912 55.7574 58.2334L55.4136 57.9219L49.5269 57.9326C46.2935 57.9326 43.5543 57.9756 43.4361 58.0186Z" fill="black"/>
<path d="M59.5816 58.1045C58.8941 58.545 58.9049 59.4795 59.6246 59.8985C60.3013 60.3067 61.1607 59.7911 61.1607 58.9854C61.1607 58.2012 60.2369 57.6856 59.5816 58.1045Z" fill="black"/>
<path d="M45.1771 63.6152C44.0491 63.9053 43.0608 64.7324 42.556 65.8174C42.3089 66.3652 42.2552 66.6016 42.2659 67.375C42.2659 68.1484 42.3089 68.3955 42.5667 68.9434C42.9427 69.7705 43.6732 70.501 44.511 70.8877C45.0589 71.1348 45.2952 71.1885 46.0687 71.1885C46.8421 71.1885 47.0784 71.1348 47.6263 70.8877C48.4642 70.501 49.1946 69.7705 49.5706 68.9434C49.8284 68.3848 49.8714 68.1484 49.8714 67.375C49.8714 66.6016 49.8284 66.3652 49.5706 65.8066C48.9798 64.5068 47.723 63.6475 46.3157 63.5615C45.9183 63.54 45.4026 63.5615 45.1771 63.6152ZM47.0677 66.0107C48.1204 66.8057 47.9485 68.3633 46.7562 68.9326C45.6067 69.4697 44.2317 68.4707 44.3821 67.2031C44.5218 65.9033 46.0472 65.2266 47.0677 66.0107Z" fill="black"/>
<path d="M52.4492 66.4082C52.1055 66.5479 51.7617 67.042 51.7617 67.3857C51.7617 67.5791 51.8799 67.8262 52.0732 68.041L52.3848 68.3955H56.4775H60.5703L60.8604 68.0947C61.2686 67.6865 61.2686 67.0635 60.8604 66.6553L60.5703 66.3545L56.6172 66.333C54.4473 66.3223 52.5674 66.3545 52.4492 66.4082Z" fill="black"/>
<rect x="85.5" width="40" height="40" rx="20" fill="black"/>
<path d="M99.5269 24.92L108.063 12.6H108.833V28H106.963V24.128V23.886V16.758L102.607 23.27H107.733H108.107H111.253V24.92H99.5269Z" fill="white"/>
</svg>
