<svg width="125" height="120" viewBox="0 0 125 120" fill="none" xmlns="http://www.w3.org/2000/svg">
<rect width="120" height="120" rx="60" fill="#F1F8FA"/>
<path fill-rule="evenodd" clip-rule="evenodd" d="M68.9928 32H43.9213C42.3508 32 40.8445 32.6301 39.7339 33.7502C38.624 34.8719 38 36.3928 38 37.9782V81.0219C38 84.323 40.6514 87 43.9213 87H77.0787C78.6492 87 80.1554 86.3699 81.2661 85.2498C82.3759 84.1281 83 82.6072 83 81.0219V46.1421C83 45.1917 82.6257 44.2793 81.9588 43.606L71.5049 33.0511C70.8383 32.3777 69.9347 32.0002 68.993 32.0002L68.9928 32ZM80.6313 47.5429V81.0216C80.6313 81.9732 80.2574 82.8856 79.5905 83.5577C78.9251 84.2307 78.0215 84.6086 77.0787 84.6086H43.9213C41.9591 84.6086 40.3687 83.0029 40.3687 81.0216V37.978C40.3687 37.0264 40.7426 36.114 41.4095 35.4419C42.0748 34.7689 42.9785 34.391 43.9213 34.391H67.6053C68.2591 34.391 68.7896 34.9266 68.7896 35.5868V40.3691C68.7896 41.9549 69.4137 43.4757 70.5231 44.597C71.6341 45.7176 73.1404 46.3477 74.7106 46.3477H79.4476C79.7612 46.3477 80.0633 46.473 80.2846 46.698C80.5074 46.9214 80.6315 47.2264 80.6315 47.5431L80.6313 47.5429ZM71.1577 36.081V40.3685C71.1577 41.3205 71.532 42.2328 72.1985 42.9046C72.8643 43.578 73.7679 43.9555 74.7104 43.9555H78.9569L71.1577 36.081Z" fill="black"/>
<path fill-rule="evenodd" clip-rule="evenodd" d="M45.4516 53.1716L47.8203 55.5628C48.2822 56.0304 49.0328 56.0304 49.4947 55.5628L54.2317 50.78C54.6932 50.3136 54.6932 49.5558 54.2317 49.0894C53.7698 48.623 53.0188 48.623 52.5569 49.0894L48.6573 53.0267L47.1264 51.4806C46.6645 51.0146 45.9136 51.0146 45.4516 51.4806C44.9901 51.947 44.9901 52.7052 45.4516 53.1716Z" fill="black"/>
<path fill-rule="evenodd" clip-rule="evenodd" d="M45.4516 65.1275L47.8203 67.5191C48.2822 67.9863 49.0328 67.9863 49.4947 67.5191L54.2317 62.7363C54.6932 62.2699 54.6932 61.5121 54.2317 61.0457C53.7698 60.5793 53.0188 60.5793 52.5569 61.0457L48.6573 64.983L47.1264 63.4369C46.6645 62.9705 45.9136 62.9705 45.4516 63.4369C44.9901 63.9033 44.9901 64.6611 45.4516 65.1275Z" fill="black"/>
<path fill-rule="evenodd" clip-rule="evenodd" d="M45.4516 77.0844L47.8203 79.4756C48.2822 79.9432 49.0328 79.9432 49.4947 79.4756L54.2317 74.6932C54.6932 74.2268 54.6932 73.4686 54.2317 73.0022C53.7698 72.5362 53.0188 72.5362 52.5569 73.0022L48.6573 76.9399L47.1264 75.3938C46.6645 74.9274 45.9136 74.9274 45.4516 75.3938C44.9901 75.8602 44.9901 76.618 45.4516 77.0844Z" fill="black"/>
<path fill-rule="evenodd" clip-rule="evenodd" d="M58.1316 53.5221H74.7103C75.3641 53.5221 75.8946 52.9864 75.8946 52.3263C75.8946 51.6661 75.3641 51.1305 74.7103 51.1305H58.1316C57.4778 51.1305 56.9473 51.6661 56.9473 52.3263C56.9473 52.9864 57.4778 53.5221 58.1316 53.5221Z" fill="black"/>
<path fill-rule="evenodd" clip-rule="evenodd" d="M58.1316 65.478H74.7103C75.3641 65.478 75.8946 64.9423 75.8946 64.2826C75.8946 63.6224 75.3641 63.0868 74.7103 63.0868H58.1316C57.4778 63.0868 56.9473 63.6224 56.9473 64.2826C56.9473 64.9423 57.4778 65.478 58.1316 65.478Z" fill="black"/>
<path fill-rule="evenodd" clip-rule="evenodd" d="M58.1316 77.4349H74.7103C75.3641 77.4349 75.8946 76.8992 75.8946 76.2391C75.8946 75.5793 75.3641 75.0437 74.7103 75.0437H58.1316C57.4778 75.0437 56.9473 75.5793 56.9473 76.2391C56.9473 76.8992 57.4778 77.4349 58.1316 77.4349Z" fill="black"/>
<rect x="85" width="40" height="40" rx="20" fill="black"/>
<path d="M101.808 15.636V13.7L107.088 12.38V28H105.218V14.624L101.808 15.636Z" fill="white"/>
</svg>
