<svg width="50" height="50" viewBox="0 0 50 50" fill="none" xmlns="http://www.w3.org/2000/svg">
<g clip-path="url(#clip0_871_5541)">
<path d="M43.75 0H6.25C2.79822 0 0 2.79822 0 6.25V43.75C0 47.2018 2.79822 50 6.25 50H43.75C47.2018 50 50 47.2018 50 43.75V6.25C50 2.79822 47.2018 0 43.75 0Z" fill="#7B519D"/>
<path fill-rule="evenodd" clip-rule="evenodd" d="M35.7834 30.8147C34.9905 30.1764 34.1432 29.6035 33.3092 29.0182C31.6459 27.85 30.1245 27.7592 28.8833 29.6387C28.1863 30.6939 27.2106 30.7401 26.1903 30.2772C23.3778 29.0019 21.206 27.0369 19.9338 24.1782C19.371 22.9135 19.3784 21.7796 20.6951 20.885C21.3922 20.412 22.0946 19.8522 22.0384 18.8185C21.9651 17.4706 18.6925 12.9663 17.4002 12.4909C16.8655 12.2942 16.3329 12.307 15.7889 12.4898C12.7586 13.5089 11.5034 16.0011 12.7055 18.9519C16.2915 27.7556 22.6024 33.8845 31.2896 37.6252C31.7849 37.8382 32.3351 37.9234 32.6137 37.9998C34.5915 38.0197 36.9084 36.1142 37.5776 34.2231C38.2218 32.4037 36.8603 31.6816 35.7834 30.8147ZM26.0428 13.3935C32.3937 14.3701 35.3227 17.39 36.1314 23.7867C36.2064 24.3775 35.9864 25.2666 36.8293 25.283C37.7104 25.2998 37.4981 24.4239 37.5055 23.8324C37.58 17.808 32.327 12.2231 26.2264 12.0171C25.7662 12.0834 24.8138 11.6997 24.7544 12.7314C24.7148 13.4269 25.5166 13.3126 26.0428 13.3935Z" fill="white"/>
<path fill-rule="evenodd" clip-rule="evenodd" d="M27.2835 15.1476C26.6727 15.074 25.8662 14.7862 25.7235 15.6338C25.5744 16.5235 26.4732 16.4331 27.0508 16.5624C30.9732 17.439 32.339 18.8667 32.9849 22.7576C33.0792 23.3249 32.8918 24.2078 33.8558 24.0614C34.5702 23.9526 34.3122 23.1958 34.3719 22.7538C34.4036 19.0182 31.2026 15.6182 27.2835 15.1476Z" fill="white"/>
<path fill-rule="evenodd" clip-rule="evenodd" d="M27.6444 18.2018C27.2367 18.2119 26.8365 18.256 26.6866 18.6918C26.4615 19.3431 26.935 19.4984 27.417 19.5758C29.0261 19.8341 29.8729 20.7829 30.0336 22.3875C30.0771 22.823 30.3534 23.1759 30.7741 23.1262C31.3571 23.0567 31.4098 22.5378 31.3919 22.045C31.4207 20.2423 29.3832 18.1587 27.6444 18.2018Z" fill="white"/>
</g>
<defs>
<clipPath id="clip0_871_5541">
<rect width="50" height="50" rx="25" fill="white"/>
</clipPath>
</defs>
</svg>
