<svg width="50" height="50" viewBox="0 0 50 50" fill="none" xmlns="http://www.w3.org/2000/svg">
<path d="M11.8976 45.1759L12.8006 45.6347C16.4826 47.8604 20.6919 49.0238 24.9759 48.9996C38.1641 48.9691 49 37.9305 49 24.5273C49 18.0499 46.4686 11.8293 41.9672 7.24379C37.4718 2.61089 31.33 0 24.9293 0C11.8013 0 1 10.9789 1 24.3193C1 24.4249 1 24.5289 1.00151 24.6344C1.04105 29.1701 2.28928 33.6101 4.61349 37.4824L5.21546 38.4001L2.8075 47.4242L11.8976 45.1759Z" fill="#00E676"/>
<path d="M37.1892 29.9256L35.6923 29.2453C35.6923 29.2453 33.5151 28.2927 32.1543 27.6123C32.0182 27.6123 31.8822 27.4763 31.7461 27.4763C31.4106 27.4845 31.0827 27.5782 30.7935 27.7484C30.5037 27.9185 30.6575 27.8845 28.7524 30.0617C28.6231 30.3162 28.3578 30.4754 28.072 30.4699H27.9359C27.7314 30.4357 27.5418 30.3409 27.3916 30.1978L26.7112 29.9256C25.2514 29.3076 23.9146 28.4318 22.765 27.3402C22.4929 27.068 22.0846 26.7958 21.8125 26.5237C20.8051 25.5587 19.9351 24.4598 19.227 23.2579L19.0909 22.9857C18.9727 22.8194 18.8809 22.6358 18.8188 22.4414C18.7832 22.2057 18.8313 21.965 18.9549 21.7611C19.0787 21.5569 19.4992 21.0806 19.9074 20.6724C20.3156 20.2642 20.3156 19.9921 20.5878 19.7199C20.7277 19.5256 20.8243 19.3037 20.8713 19.069C20.9182 18.8342 20.9143 18.5922 20.8599 18.3591C20.2258 16.5983 19.499 14.8723 18.6827 13.1882C18.4639 12.8479 18.123 12.6044 17.7302 12.5078H16.2333C15.9612 12.5078 15.689 12.6439 15.4169 12.6439L15.2808 12.78C15.0086 12.916 14.7365 13.1882 14.4643 13.3243C14.1922 13.4603 14.0561 13.8686 13.784 14.1407C12.8327 15.3429 12.3063 16.8262 12.2871 18.3591C12.3022 19.4374 12.5335 20.5017 12.9675 21.4889L13.1036 21.8971C14.3254 24.5094 16.0342 26.8648 18.1384 28.837L18.6827 29.3813C19.0788 29.7094 19.4433 30.0739 19.7713 30.4699C22.5908 32.9234 25.9397 34.6924 29.5553 35.6409C29.9635 35.7769 30.5078 35.7769 30.916 35.913H32.2768C32.988 35.8779 33.6837 35.6924 34.3179 35.3687C34.6513 35.2177 34.9697 35.0353 35.2705 34.8244L35.5426 34.5522C35.8148 34.2801 36.0869 34.144 36.3591 33.8719C36.625 33.6349 36.8543 33.3598 37.0395 33.0554C37.3007 32.4458 37.4844 31.8062 37.5838 31.1503V30.1978C37.4615 30.0879 37.324 29.9963 37.1755 29.9256" fill="white"/>
</svg>
